<?xml version="1.0" encoding="iso-8859-1"?>
<!-- Generator: Adobe Illustrator 19.0.0, SVG Export Plug-In . SVG Version: 6.00 Build 0)  -->
<svg version="1.1" id="Layer_1" xmlns="http://www.w3.org/2000/svg" xmlns:xlink="http://www.w3.org/1999/xlink" x="0px" y="0px"
	 viewBox="0 0 240 240" style="enable-background:new 0 0 240 240;" xml:space="preserve">
<g>
	<g>
		<g>
			<path d="M116,64c30.879,0,56,25.121,56,56c0,2.211,1.789,4,4,4s4-1.789,4-4c0-35.289-28.711-64-64-64c-2.211,0-4,1.789-4,4
				S113.789,64,116,64z"/>
			<path d="M116,176c-30.879,0-56-25.121-56-56c0-2.211-1.789-4-4-4s-4,1.789-4,4c0,35.289,28.711,64,64,64c2.211,0,4-1.789,4-4
				S118.211,176,116,176z"/>
			<path d="M239.715,210.515L232,191.228V144c0-2.211-1.789-4-4-4h-88c-2.211,0-4,1.789-4,4v47.228l-7.715,19.287
				c-0.492,1.23-0.34,2.629,0.402,3.726C129.433,215.34,130.671,216,132,216h104c1.328,0,2.566-0.66,3.312-1.758
				C240.054,213.144,240.207,211.746,239.715,210.515z M144,148h80v40h-80V148z M137.906,208l4.801-12h82.586l4.801,12H137.906z"/>
			<path d="M111.312,98.242c0.742-1.098,0.894-2.496,0.402-3.726L104,75.228V28c0-2.211-1.789-4-4-4H12c-2.211,0-4,1.789-4,4v47.228
				L0.285,94.515c-0.492,1.23-0.34,2.629,0.402,3.726C1.433,99.34,2.671,100,4,100h104C109.328,100,110.566,99.34,111.312,98.242z
				 M16,32h80v40H16V32z M9.906,92l4.801-12h82.586l4.801,12H9.906z"/>
		</g>
	</g>
</g>
<g>
</g>
<g>
</g>
<g>
</g>
<g>
</g>
<g>
</g>
<g>
</g>
<g>
</g>
<g>
</g>
<g>
</g>
<g>
</g>
<g>
</g>
<g>
</g>
<g>
</g>
<g>
</g>
<g>
</g>
</svg>
